<svg xmlns="http://www.w3.org/2000/svg" width="896" height="220" viewBox="0 0 896 220" role="img" aria-labelledby="title desc">
  <title id="title">Last 30 days of GitHub contributions</title>
  <desc id="desc">2371 contributions over the last 30 days. Peak day 283.</desc>
  <style>
    text {
      font-family: -apple-system, BlinkMacSystemFont, "Segoe UI", Helvetica, Arial, sans-serif;
    }
    .line {
      fill: none;
      stroke: #6ee7b7;
      stroke-width: 2.25;
      stroke-linecap: round;
      stroke-linejoin: round;
    }
  </style>
  <rect width="896" height="220" rx="12" fill="#0d1117"/>
  <rect x="0" y="0" width="896" height="220" rx="12" fill="#161b22"/>
  <text x="48" y="28" fill="#e8b86d" font-size="13" font-weight="600" letter-spacing="0.12em">LAST 30 DAYS</text>
  <text x="868" y="28" text-anchor="end" fill="#8b949e" font-size="13">2371 contributions</text>
  <line x1="48" y1="180.0" x2="868" y2="180.0" stroke="#21262d" stroke-width="1"/>
      <text x="40" y="184.0" text-anchor="end" fill="#8b949e" font-size="11">0</text><line x1="48" y1="115.8" x2="868" y2="115.8" stroke="#21262d" stroke-width="1"/>
      <text x="40" y="119.8" text-anchor="end" fill="#8b949e" font-size="11">142</text><line x1="48" y1="52.0" x2="868" y2="52.0" stroke="#21262d" stroke-width="1"/>
      <text x="40" y="56.0" text-anchor="end" fill="#8b949e" font-size="11">283</text>
  <defs>
    <linearGradient id="areaDark" x1="0" y1="0" x2="0" y2="1">
      <stop offset="0%" stop-color="#6ee7b7" stop-opacity="0.35"/>
      <stop offset="100%" stop-color="#6ee7b7" stop-opacity="0.02"/>
    </linearGradient>
  </defs>
  <path d="M 48.0 133.4 C 52.7 130.5, 66.9 112.5, 76.3 116.2 C 85.7 119.9, 95.1 163.6, 104.6 155.6 C 114.0 147.5, 123.4 66.7, 132.8 67.8 C 142.3 69.0, 151.7 143.7, 161.1 162.4 C 170.5 180.0, 180.0 180.0, 189.4 179.5 C 198.8 172.6, 208.2 131.8, 217.7 120.7 C 227.1 109.7, 236.5 125.0, 245.9 113.5 C 255.4 102.1, 264.8 52.0, 274.2 52.0 C 283.6 57.7, 293.1 130.6, 302.5 147.4 C 311.9 164.2, 321.3 147.8, 330.8 152.9 C 340.2 157.9, 349.6 173.3, 359.0 177.7 C 368.5 180.0, 377.9 179.4, 387.3 179.5 C 396.7 179.7, 406.2 180.0, 415.6 178.6 C 425.0 166.1, 434.4 114.0, 443.9 104.0 C 453.3 94.0, 462.7 113.6, 472.1 118.5 C 481.6 123.4, 491.0 127.2, 500.4 133.4 C 509.8 139.7, 519.3 150.1, 528.7 156.0 C 538.1 162.0, 547.5 165.2, 557.0 169.1 C 566.4 173.1, 575.8 180.0, 585.2 179.5 C 594.7 175.1, 604.1 143.8, 613.5 142.5 C 622.9 141.1, 632.4 171.0, 641.8 171.4 C 651.2 171.9, 660.6 146.4, 670.1 145.2 C 679.5 144.0, 688.9 161.5, 698.3 164.2 C 707.8 166.8, 717.2 158.6, 726.6 161.0 C 736.0 163.4, 745.5 175.6, 754.9 178.6 C 764.3 180.0, 773.7 180.0, 783.2 179.5 C 792.6 167.9, 802.0 121.3, 811.4 108.5 C 820.9 95.8, 830.3 92.0, 839.7 103.1 C 849.1 114.3, 863.3 163.4, 868.0 175.5 L 868.0 180.0 L 48.0 180.0 Z" fill="url(#areaDark)"/>
  <path class="line" d="M 48.0 133.4 C 52.7 130.5, 66.9 112.5, 76.3 116.2 C 85.7 119.9, 95.1 163.6, 104.6 155.6 C 114.0 147.5, 123.4 66.7, 132.8 67.8 C 142.3 69.0, 151.7 143.7, 161.1 162.4 C 170.5 180.0, 180.0 180.0, 189.4 179.5 C 198.8 172.6, 208.2 131.8, 217.7 120.7 C 227.1 109.7, 236.5 125.0, 245.9 113.5 C 255.4 102.1, 264.8 52.0, 274.2 52.0 C 283.6 57.7, 293.1 130.6, 302.5 147.4 C 311.9 164.2, 321.3 147.8, 330.8 152.9 C 340.2 157.9, 349.6 173.3, 359.0 177.7 C 368.5 180.0, 377.9 179.4, 387.3 179.5 C 396.7 179.7, 406.2 180.0, 415.6 178.6 C 425.0 166.1, 434.4 114.0, 443.9 104.0 C 453.3 94.0, 462.7 113.6, 472.1 118.5 C 481.6 123.4, 491.0 127.2, 500.4 133.4 C 509.8 139.7, 519.3 150.1, 528.7 156.0 C 538.1 162.0, 547.5 165.2, 557.0 169.1 C 566.4 173.1, 575.8 180.0, 585.2 179.5 C 594.7 175.1, 604.1 143.8, 613.5 142.5 C 622.9 141.1, 632.4 171.0, 641.8 171.4 C 651.2 171.9, 660.6 146.4, 670.1 145.2 C 679.5 144.0, 688.9 161.5, 698.3 164.2 C 707.8 166.8, 717.2 158.6, 726.6 161.0 C 736.0 163.4, 745.5 175.6, 754.9 178.6 C 764.3 180.0, 773.7 180.0, 783.2 179.5 C 792.6 167.9, 802.0 121.3, 811.4 108.5 C 820.9 95.8, 830.3 92.0, 839.7 103.1 C 849.1 114.3, 863.3 163.4, 868.0 175.5"/>
  <circle cx="48.0" cy="133.4" r="3.2" fill="#e8b86d"/><circle cx="76.3" cy="116.2" r="3.2" fill="#e8b86d"/><circle cx="104.6" cy="155.6" r="3.2" fill="#e8b86d"/><circle cx="132.8" cy="67.8" r="3.2" fill="#e8b86d"/><circle cx="161.1" cy="162.4" r="3.2" fill="#e8b86d"/><circle cx="189.4" cy="179.5" r="3.2" fill="#e8b86d"/><circle cx="217.7" cy="120.7" r="3.2" fill="#e8b86d"/><circle cx="245.9" cy="113.5" r="3.2" fill="#e8b86d"/><circle cx="274.2" cy="52.0" r="3.2" fill="#e8b86d"/><circle cx="302.5" cy="147.4" r="3.2" fill="#e8b86d"/><circle cx="330.8" cy="152.9" r="3.2" fill="#e8b86d"/><circle cx="359.0" cy="177.7" r="3.2" fill="#e8b86d"/><circle cx="387.3" cy="179.5" r="3.2" fill="#e8b86d"/><circle cx="415.6" cy="178.6" r="3.2" fill="#e8b86d"/><circle cx="443.9" cy="104.0" r="3.2" fill="#e8b86d"/><circle cx="472.1" cy="118.5" r="3.2" fill="#e8b86d"/><circle cx="500.4" cy="133.4" r="3.2" fill="#e8b86d"/><circle cx="528.7" cy="156.0" r="3.2" fill="#e8b86d"/><circle cx="557.0" cy="169.1" r="3.2" fill="#e8b86d"/><circle cx="585.2" cy="179.5" r="3.2" fill="#e8b86d"/><circle cx="613.5" cy="142.5" r="3.2" fill="#e8b86d"/><circle cx="641.8" cy="171.4" r="3.2" fill="#e8b86d"/><circle cx="670.1" cy="145.2" r="3.2" fill="#e8b86d"/><circle cx="698.3" cy="164.2" r="3.2" fill="#e8b86d"/><circle cx="726.6" cy="161.0" r="3.2" fill="#e8b86d"/><circle cx="754.9" cy="178.6" r="3.2" fill="#e8b86d"/><circle cx="783.2" cy="179.5" r="3.2" fill="#e8b86d"/><circle cx="811.4" cy="108.5" r="3.2" fill="#e8b86d"/><circle cx="839.7" cy="103.1" r="3.2" fill="#e8b86d"/><circle cx="868.0" cy="175.5" r="3.2" fill="#e8b86d"/>
  <text x="48" y="206" fill="#8b949e" font-size="11">Sep 1</text>
  <text x="448" y="206" text-anchor="middle" fill="#8b949e" font-size="11">Sep 16</text>
  <text x="868" y="206" text-anchor="end" fill="#8b949e" font-size="11">Sep 30</text>
</svg>
